<svg width="116" height="125" viewBox="0 0 116 125" fill="none" xmlns="http://www.w3.org/2000/svg">
<path fill-rule="evenodd" clip-rule="evenodd" d="M48.0479 0.288153C47.0145 0.694725 46.0808 1.55628 45.6841 2.46966C45.5039 2.8843 45.3851 5.38412 45.3851 8.75649V14.3554L27.2355 14.4248L9.08596 14.4945L7.68445 15.0993C5.747 15.9357 4.05594 17.5265 3.34678 19.1795C2.77524 20.5116 2.76123 20.8771 2.83915 32.3132L2.91932 44.0767L3.75125 45.3869C4.78753 47.0188 6.34993 48.2045 8.30336 48.8421C9.75168 49.3147 10.4704 49.3331 27.5965 49.3331H45.3851V53.0003V56.6675H32.0617C21.5143 56.6675 18.5498 56.7362 17.8331 56.9973C16.8556 57.3535 1.47716 71.0259 0.530024 72.3805C-0.16989 73.3819 -0.177459 74.9029 0.512364 75.8898C1.45138 77.233 16.8649 90.9457 17.8317 91.298C18.5501 91.5596 21.5039 91.6283 32.0617 91.6283H45.3851V104.685V117.742L42.6017 117.826C40.325 117.895 39.6778 118.002 39.0452 118.414C37.6585 119.318 37.1161 120.173 37.1161 121.455C37.1161 122.738 37.6588 123.593 39.046 124.496C39.8093 124.993 40.0756 125 57.9986 125C75.9217 125 76.188 124.993 76.9513 124.496C78.3385 123.593 78.8811 122.738 78.8811 121.455C78.8811 120.173 78.3388 119.318 76.9521 118.414C76.3195 118.002 75.6722 117.895 73.3956 117.826L70.6122 117.742V104.692V91.642L88.7618 91.574L106.911 91.5061L108.516 90.8188C110.442 89.994 111.892 88.5894 112.655 86.8101C113.189 85.5654 113.218 84.9144 113.218 74.1479C113.218 63.3814 113.189 62.7304 112.655 61.4857C111.892 59.7064 110.442 58.3019 108.516 57.477L106.911 56.7897L88.7618 56.7218L70.6122 56.6538V52.9934V49.3331H84.0807C95.2505 49.3331 97.6821 49.2729 98.329 48.9812C99.3698 48.5118 114.969 34.5065 115.559 33.5122C116.169 32.4841 116.144 31.051 115.5 30.1413C114.479 28.6974 98.9642 14.9216 98.044 14.6419C97.4461 14.46 92.8385 14.3722 83.8985 14.3722H70.64L70.5562 8.3998C70.4637 1.83156 70.462 1.82472 68.5428 0.574196C67.8014 0.0913457 67.3728 0.067631 58.3288 0.0136006C50.8835 -0.030895 48.7111 0.0270471 48.0479 0.288153ZM62.2032 10.8273V14.3722H57.9986H53.7941V10.8273V7.28227H57.9986H62.2032V10.8273ZM99.0158 25.5572C101.37 27.6749 103.9 29.9797 104.638 30.6784L105.979 31.949L100.419 36.9704L94.8583 41.9918L53.0233 41.9952L11.1882 41.9986V31.8526V21.7067H52.9619H94.7353L99.0158 25.5572ZM62.2032 53.0003V56.6675H57.9986H53.7941V53.0003V49.3331H57.9986H62.2032V53.0003ZM104.809 74.1479V84.2939H63.0183H21.2275L16.5344 80.0766C13.9531 77.7569 11.4399 75.4576 10.9497 74.9669L10.058 74.0746L15.5985 69.0419L21.1389 64.0093L62.974 64.0056L104.809 64.0019V74.1479ZM62.2032 104.708V117.788H57.9986H53.7941V104.708V91.6283H57.9986H62.2032V104.708Z" fill="black"/>
</svg>
