<svg width="147" height="125" viewBox="0 0 147 125" fill="none" xmlns="http://www.w3.org/2000/svg">
<path fill-rule="evenodd" clip-rule="evenodd" d="M71.1891 0.245417C70.6015 0.438589 55.2724 7.50999 37.1244 15.9595C4.95784 30.9358 4.08737 31.362 2.50025 32.91C1.25032 34.129 0.766222 34.8513 0.415508 36.0201C-0.678318 39.6653 0.427294 43.3193 3.26291 45.432C3.80824 45.8382 9.5588 48.5737 16.0416 51.5108L27.829 56.8513L27.9081 77.5147L27.9871 98.1784L28.6356 99.3796C29.653 101.263 30.9075 102.498 32.6781 103.359L34.3115 104.153H73.5512H112.791L114.216 103.454C116.03 102.564 117.533 101.077 118.419 99.2945L119.115 97.8939L119.194 77.3884L119.273 56.8829L120.344 56.3739C122.562 55.3199 138.266 48.2496 138.39 48.2496C138.462 48.2496 138.52 64.779 138.52 84.9819V121.714L139.147 122.82C139.958 124.246 141.837 125.205 143.347 124.962C144.534 124.772 145.536 124.117 146.407 122.962C147 122.177 147 122.16 147 79.4521V36.7276L146.386 35.4127C145.366 33.23 143.926 31.9171 141.021 30.5202C137.017 28.5947 78.4834 1.31227 77.0101 0.684392C75.3948 -0.00380063 72.5899 -0.215464 71.1891 0.245417ZM101.095 21.3236C116.31 28.4203 128.842 34.3094 128.943 34.4104C129.045 34.5114 116.32 34.5939 100.664 34.5939H72.199L71.2221 35.2397C70.0636 36.0055 69.2403 37.4937 69.2397 38.8226C69.2392 40.0838 70.2197 41.766 71.3504 42.4431C72.2225 42.9654 73.3463 42.9919 100.363 43.1287L128.469 43.271L101.01 55.7142L73.5512 68.1574L49.763 57.3845C36.6794 51.459 22.1885 44.8994 17.5608 42.8072C12.9331 40.7153 9.14053 38.8889 9.13277 38.7489C9.12501 38.6089 12.5232 36.9102 16.6843 34.974C27.7655 29.8175 73.4055 8.47784 73.4196 8.44683C73.4259 8.43232 85.88 14.2269 101.095 21.3236ZM54.0032 68.727C71.9431 76.8726 71.7778 76.8072 73.9724 76.6157C76.1224 76.428 76.1238 76.4274 93.4232 68.5665C101.229 65.0192 108.296 61.8149 109.126 61.4459L110.635 60.7745V78.2675V95.7602H73.5512H36.4675V78.2758V60.7913L38.2642 61.5938C39.2525 62.0354 46.3349 65.2453 54.0032 68.727Z" fill="black"/>
</svg>
