<svg width="229" height="164" viewBox="0 0 229 164" fill="none" xmlns="http://www.w3.org/2000/svg">
<path fill-rule="evenodd" clip-rule="evenodd" d="M57.8599 23.4865C-0.895904 48.9528 0.802089 48.1216 0.123338 51.74C-0.0411128 52.618 -0.0411128 54.0539 0.123338 54.9319C0.80298 58.5534 -0.91997 57.7115 58.0253 83.2215C107.807 104.765 112.952 106.899 114.625 106.692C115.654 106.565 133.168 99.2124 154.347 90.017L192.229 73.5692L192.451 112.587C192.699 155.934 192.493 153.2 195.676 155.47C196.789 156.264 197.725 156.508 199.661 156.508C202.394 156.508 203.841 155.757 205.571 153.439C206.481 152.22 206.491 151.833 206.608 111.032L206.727 69.855L205.717 69.2257C205.069 68.822 188.274 66.4947 158.804 62.7248C133.556 59.4951 112.258 56.6508 111.474 56.4044C108.406 55.439 106.424 51.6905 107.094 48.1212C107.498 45.9664 110.173 43.2612 112.293 42.8637C113.879 42.5659 213.652 55.1035 217.044 56.0264C218.107 56.3161 219.179 57.0974 220.09 58.2472C221.958 60.6057 223.415 60.6311 225.817 58.3457C228.709 55.5955 228.864 51.7124 226.203 48.7344C224.928 47.3083 218.541 44.4275 170.614 23.659C133.106 7.40594 115.849 0.138004 114.46 0.00965169C112.614 -0.161039 108.096 1.71299 57.8599 23.4865ZM43.1815 94.0801C42.7919 94.549 42.693 98.8194 42.8017 110.458C42.9475 126.085 42.9573 126.228 44.1165 129.652C48.9791 144.019 65.6783 155.961 87.8587 160.936C97.7979 163.166 101.845 163.573 114.014 163.573C126.182 163.573 130.23 163.166 140.169 160.936C162.31 155.97 178.774 144.219 183.837 129.768L185.086 126.202L185.234 110.744C185.392 94.2767 185.3 93.446 183.317 93.446C182.723 93.446 168.556 99.3738 151.836 106.619C135.116 113.864 120.326 120.081 118.968 120.435C115.831 121.252 112.197 121.253 109.094 120.438C107.755 120.087 92.9745 113.87 76.2468 106.623C59.5196 99.3756 45.355 93.446 44.7707 93.446C44.186 93.446 43.4707 93.7312 43.1815 94.0801Z" fill="#FAFAFA"/>
</svg>
