<svg width="138" height="125" viewBox="0 0 138 125" fill="none" xmlns="http://www.w3.org/2000/svg">
<path fill-rule="evenodd" clip-rule="evenodd" d="M9.97019 0.19989C6.81766 0.812301 3.13126 3.56269 1.5318 6.49567C-0.0474288 9.39138 0.00353146 7.90733 2.62485e-05 51.1434C-0.00186117 75.3511 0.0981721 91.41 0.256985 92.3666C0.985529 96.7586 4.22569 100.484 8.77869 102.166C10.3666 102.752 10.4801 102.756 31.0818 102.849C50.3704 102.936 51.7784 102.973 51.6364 103.392C51.5525 103.639 50.485 106.716 49.2644 110.229L47.0445 116.616L43.1349 116.749C38.717 116.9 38.1122 117.119 37.1873 118.909C36.1398 120.936 36.8516 123.343 38.8218 124.436L39.8378 125H69.0195H98.2012L99.2172 124.436C101.187 123.343 101.899 120.936 100.852 118.909C99.9268 117.119 99.322 116.9 94.9041 116.749L90.9945 116.616L88.7746 110.229C87.554 106.716 86.4865 103.639 86.4026 103.392C86.2606 102.973 87.6686 102.936 106.957 102.849C127.559 102.756 127.672 102.752 129.26 102.166C133.875 100.462 137.097 96.7083 137.797 92.221C137.963 91.1622 138.033 75.5131 137.986 50.2119C137.915 12.3222 137.881 9.80604 137.429 8.49632C136.302 5.23225 133.156 2.0145 129.774 0.668048L128.204 0.0425955L69.6936 0.00347166C36.6365 -0.0186188 10.6556 0.0668151 9.97019 0.19989ZM127.53 8.87372C128.049 9.19283 128.716 9.85155 129.013 10.3375C129.543 11.2073 129.552 11.6928 129.552 41.6951V72.1692H69.0195H8.48722L8.41873 42.2601C8.37316 22.3883 8.44327 12.0098 8.62743 11.334C8.96231 10.106 10.2315 8.78855 11.4033 8.45214C11.9204 8.30389 35.0068 8.22298 69.424 8.24933L126.586 8.29324L127.53 8.87372ZM39.627 36.7048C38.1208 37.7167 37.6055 38.6274 37.6217 40.2507C37.6371 41.8058 38.1027 42.6716 39.4638 43.6747C40.1962 44.2144 40.5043 44.2246 58.4268 44.2956C76.2346 44.3659 76.6708 44.3555 77.7712 43.8299C79.9053 42.81 80.6751 40.2163 79.4634 38.1297C78.2282 36.0035 79.2774 36.1059 58.75 36.1059H40.5184L39.627 36.7048ZM88.7217 36.5722C85.7224 38.0818 85.7164 42.2614 88.7112 43.8748C89.5336 44.3177 90.1397 44.3691 93.7396 44.3009C97.3812 44.232 97.9146 44.1631 98.5762 43.6747C99.9365 42.6708 100.402 41.8053 100.417 40.2507C100.433 38.6274 99.9182 37.7167 98.412 36.7048C97.588 36.1512 97.223 36.1059 93.5835 36.1064C90.3681 36.1067 89.4767 36.1922 88.7217 36.5722ZM129.639 85.9425C129.543 91.8601 129.394 92.4624 127.712 93.6994L126.951 94.2597H69.0195H11.0884L10.3269 93.6994C8.64549 92.4624 8.49585 91.8601 8.39986 85.9425L8.31277 80.553H69.0195H129.726L129.639 85.9425ZM68.0758 83.4726C64.449 84.2913 63.6681 89.0618 66.8433 91.0023C69.5768 92.6732 73.1678 90.6768 73.1678 87.4864C73.1678 84.8028 70.7222 82.8751 68.0758 83.4726ZM79.6362 109.63C80.9181 113.326 81.9659 116.44 81.9642 116.55C81.9629 116.66 76.1378 116.749 69.0195 116.749C61.9012 116.749 56.0761 116.66 56.0748 116.55C56.0731 116.44 57.1209 113.326 58.4028 109.63L60.7337 102.91H69.0195H77.3053L79.6362 109.63Z" fill="black"/>
</svg>
