<svg width="511" height="512" viewBox="0 0 511 512" fill="none" xmlns="http://www.w3.org/2000/svg">
<path fill-rule="evenodd" clip-rule="evenodd" d="M278.437 510.93C327.803 506.094 373.429 487.897 413.433 457.09C432.914 442.088 458.213 413.894 472.833 390.895C479.147 380.962 491.438 355.792 495.841 343.78C500.764 330.348 506.011 309.822 508.593 293.895C511.753 274.401 511.753 237.389 508.593 217.895C504.125 190.337 497.057 168.059 484.959 143.395C471.741 116.45 457.997 97.3498 435.988 75.3398C413.978 53.3308 394.878 39.5868 367.933 26.3688C343.269 14.2708 320.991 7.2028 293.433 2.7348C273.939 -0.425198 236.927 -0.425198 217.433 2.7348C189.875 7.2028 167.597 14.2708 142.933 26.3688C115.988 39.5868 96.8879 53.3308 74.8779 75.3398C52.8689 97.3498 39.1249 116.45 25.9069 143.395C17.1279 161.293 12.7119 173.023 7.9819 191.01C1.6829 214.964 0.0848999 228.095 0.0848999 255.895C0.0848999 283.695 1.6829 296.826 7.9819 320.78C12.7119 338.767 17.1279 350.497 25.9069 368.395C39.1249 395.34 52.8689 414.44 74.8779 436.45C96.8879 458.459 115.988 472.203 142.933 485.421C167.573 497.508 190.292 504.719 216.933 508.91C231.632 511.222 264.454 512.3 278.437 510.93ZM289.433 381.819C286.021 380.278 271.922 366.808 231.103 326.091C201.496 296.558 175.846 270.37 174.103 267.895C171.225 263.809 170.933 262.704 170.933 255.895C170.933 249.086 171.225 247.981 174.103 243.895C175.846 241.42 201.496 215.232 231.103 185.699C287.755 129.188 289.184 127.953 297.933 127.927C302.348 127.913 310.983 131.542 313.628 134.521C316.511 137.769 319.389 145.2 319.389 149.395C319.389 158.033 317.763 159.948 268.651 209.145L221.982 255.895L268.651 302.645C317.763 351.842 319.389 353.757 319.389 362.395C319.389 366.59 316.511 374.021 313.628 377.269C310.983 380.248 302.348 383.877 297.933 383.863C295.733 383.857 291.908 382.937 289.433 381.819Z" fill="#04809F"/>
</svg>
