<svg width="213" height="213" viewBox="0 0 213 213" fill="none" xmlns="http://www.w3.org/2000/svg">
<path fill-rule="evenodd" clip-rule="evenodd" d="M115.812 211.852C136.248 209.85 155.136 202.317 171.697 189.563C179.761 183.353 190.234 171.681 196.287 162.161C198.9 158.049 203.988 147.629 205.811 142.656C207.849 137.096 210.021 128.599 211.09 122.005C212.398 113.935 212.398 98.6134 211.09 90.5434C209.241 79.1351 206.315 69.9127 201.306 59.7025C195.834 48.548 190.145 40.6411 181.034 31.5296C171.922 22.4185 164.015 16.7289 152.861 11.257C142.651 6.24875 133.428 3.3228 122.02 1.47317C113.95 0.165021 98.6281 0.165021 90.5581 1.47317C79.1499 3.3228 69.9274 6.24875 59.7172 11.257C48.5627 16.7289 40.6559 22.4185 31.5443 31.5296C22.4332 40.6411 16.7436 48.548 11.2717 59.7025C7.63745 67.1117 5.80935 71.9676 3.85126 79.4137C1.24365 89.33 0.582126 94.7659 0.582126 106.274C0.582126 117.783 1.24365 123.219 3.85126 133.135C5.80935 140.581 7.63745 145.437 11.2717 152.846C16.7436 164.001 22.4332 171.908 31.5443 181.019C40.6559 190.13 48.5627 195.82 59.7172 201.292C69.9175 206.295 79.3225 209.28 90.3511 211.015C96.4361 211.973 110.023 212.419 115.812 211.852ZM120.364 158.403C118.952 157.765 113.115 152.189 96.2171 135.333C83.9606 123.108 73.3423 112.267 72.6207 111.242C71.4293 109.55 71.3084 109.093 71.3084 106.274C71.3084 103.456 71.4293 102.998 72.6207 101.307C73.3423 100.282 83.9606 89.441 96.2171 77.2151C119.669 53.8212 120.261 53.3099 123.883 53.2992C125.711 53.2934 129.285 54.7957 130.38 56.0289C131.574 57.3735 132.765 60.4497 132.765 62.1863C132.765 65.7622 132.092 66.5549 111.761 86.9211L92.4413 106.274L111.761 125.628C132.092 145.994 132.765 146.786 132.765 150.362C132.765 152.099 131.574 155.175 130.38 156.52C129.285 157.753 125.711 159.255 123.883 159.249C122.972 159.247 121.389 158.866 120.364 158.403Z" fill="#FAFAFA"/>
</svg>
