<svg width="512" height="368" viewBox="0 0 512 368" fill="none" xmlns="http://www.w3.org/2000/svg">
<path fill-rule="evenodd" clip-rule="evenodd" d="M129.828 52.6997C-2.01025 109.842 1.79975 107.977 0.27675 116.096C-0.09225 118.066 -0.09225 121.288 0.27675 123.258C1.80175 131.384 -2.06425 129.495 130.199 186.735C241.9 235.076 253.445 239.863 257.199 239.399C259.507 239.113 298.806 222.616 346.328 201.983L431.328 165.077L431.828 252.627C432.383 349.89 431.922 343.755 439.063 348.848C441.561 350.63 443.662 351.177 448.005 351.177C454.138 351.177 457.384 349.492 461.266 344.292C463.309 341.556 463.33 340.687 463.593 249.137L463.859 156.743L461.593 155.331C460.139 154.425 422.454 149.203 356.328 140.744C299.678 133.497 251.888 127.115 250.128 126.562C243.245 124.396 238.797 115.985 240.3 107.976C241.207 103.141 247.209 97.0707 251.966 96.1787C255.525 95.5107 479.398 123.643 487.01 125.714C489.395 126.364 491.8 128.117 493.844 130.697C498.036 135.989 501.305 136.046 506.695 130.918C513.183 124.747 513.532 116.034 507.56 109.352C504.699 106.152 490.369 99.6877 382.828 53.0867C298.667 16.6177 259.945 0.309657 256.828 0.0216567C252.687 -0.361343 242.549 3.84366 129.828 52.6997ZM96.8918 211.1C96.0178 212.152 95.7957 221.734 96.0397 247.85C96.3667 282.913 96.3888 283.235 98.9898 290.918C109.901 323.154 147.371 349.951 197.14 361.114C219.442 366.116 228.524 367.031 255.828 367.031C283.132 367.031 292.214 366.116 314.516 361.114C364.197 349.971 401.139 323.603 412.499 291.177L415.301 283.177L415.634 248.49C415.988 211.541 415.781 209.677 411.333 209.677C409.999 209.677 378.212 222.978 340.695 239.235C303.178 255.492 269.99 269.442 266.945 270.235C259.904 272.069 251.752 272.072 244.788 270.243C241.785 269.454 208.619 255.504 171.085 239.243C133.552 222.982 101.769 209.677 100.458 209.677C99.1457 209.677 97.5408 210.317 96.8918 211.1Z" fill="#05434E"/>
</svg>
