<svg width="125" height="125" viewBox="0 0 125 125" fill="none" xmlns="http://www.w3.org/2000/svg">
<path fill-rule="evenodd" clip-rule="evenodd" d="M57.8097 0.0727003C57.3391 0.127429 55.9091 0.291369 54.6318 0.43723C35.2892 2.64493 17.4178 14.7629 7.61059 32.3211C4.03017 38.7312 1.43853 46.6807 0.328493 54.6584C-0.158691 58.1593 -0.0912236 67.5249 0.446317 71.028C2.64366 85.3478 8.53583 97.0582 18.4849 106.878C20.0139 108.386 22.2547 110.413 23.4647 111.38C39.1429 123.912 59.975 128.11 79.4433 122.662C102.152 116.307 119.677 97.1784 123.919 74.1185C127.718 53.4656 121.397 33.0084 106.667 18.2865C96.933 8.55731 85.1788 2.66741 71.2543 0.541801C68.8174 0.169697 59.7112 -0.147923 57.8097 0.0727003ZM67.4653 7.50647C86.6486 9.26389 103.634 21.0232 112.086 38.3982C114.663 43.6966 116.128 48.3886 117.124 54.5362C117.735 58.3078 117.733 66.6439 117.12 70.5394C115.645 79.917 112.056 88.3488 106.308 95.9392C104.552 98.2571 100.463 102.79 100.127 102.79C100.03 102.79 99.6955 101.993 99.3834 101.019C96.4556 91.8783 89.0872 83.3373 80.269 78.8618L77.4281 77.42L79.3932 75.8732C83.969 72.2716 87.3221 67.0649 88.8861 61.1329C89.394 59.2052 89.4652 58.3914 89.4612 54.5362C89.4571 50.4998 89.4018 49.9403 88.7871 47.7269C86.3172 38.8346 80.0124 32.0412 71.3398 28.9273C66.0373 27.0232 58.871 27.0232 53.5685 28.9273C44.896 32.0412 38.5912 38.8346 36.1213 47.7269C35.5065 49.9403 35.4512 50.4998 35.4471 54.5362C35.4432 58.3914 35.5143 59.2052 36.0223 61.1329C37.5862 67.0649 40.9393 72.2716 45.5152 75.8732L47.4803 77.42L44.6393 78.8618C35.834 83.3307 28.3887 91.9582 25.5186 101.019C25.2099 101.993 24.8806 102.79 24.7865 102.79C24.5237 102.79 20.99 98.9796 19.3487 96.9263C12.7328 88.6501 8.48889 78.2268 7.46881 67.7482C5.73714 49.9627 13.1065 31.8755 26.7648 20.3879C38.1077 10.8478 52.8855 6.17076 67.4653 7.50647ZM67.2209 35.3762C73.8926 36.997 79.1231 41.8949 81.4194 48.6725C82.3613 51.4516 82.5316 56.0444 81.8059 59.0799C80.854 63.0604 79.0619 66.1545 76.0547 69.0097C73.8227 71.1287 71.5933 72.4698 68.5654 73.5148C66.3301 74.2861 66.1011 74.3161 62.4542 74.3161C58.8072 74.3161 58.5782 74.2861 56.343 73.5148C53.315 72.4698 51.0856 71.1287 48.8536 69.0097C45.8464 66.1545 44.0543 63.0604 43.1025 59.0799C42.4334 56.2819 42.5637 51.5105 43.3799 48.9168C46.5822 38.7393 56.9128 32.8721 67.2209 35.3762ZM68.823 82.5139C78.148 84.4133 86.1363 90.427 90.516 98.8449C91.8627 101.434 93.1438 105.015 93.3922 106.886L93.5516 108.087L91.7532 109.247C89.2628 110.854 83.6006 113.583 80.646 114.601C77.5368 115.672 73.8474 116.58 70.3968 117.126C66.6139 117.723 58.2123 117.72 54.5096 117.12C46.753 115.861 39.7721 113.319 33.6404 109.518L31.3492 108.098L31.4841 106.971C31.6655 105.457 32.9796 101.597 34.0308 99.4917C37.0822 93.3794 42.3078 88.1712 48.483 85.0883C51.5249 83.5696 55.8707 82.3404 59.643 81.9322C61.583 81.7221 66.4497 82.0306 68.823 82.5139Z" fill="black"/>
</svg>
