<svg width="512" height="512" viewBox="0 0 512 512" fill="none" xmlns="http://www.w3.org/2000/svg">
<path fill-rule="evenodd" clip-rule="evenodd" d="M233.313 1.08704C183.947 5.92304 138.321 24.12 98.3171 54.927C78.8361 69.929 53.5371 98.123 38.9171 121.122C32.6031 131.055 20.3121 156.225 15.9091 168.237C10.9861 181.669 5.73911 202.195 3.15711 218.122C-0.00289059 237.616 -0.00289059 274.628 3.15711 294.122C7.62511 321.68 14.6931 343.958 26.7911 368.622C40.0091 395.567 53.7531 414.667 75.7621 436.677C97.7721 458.686 116.872 472.43 143.817 485.648C168.481 497.746 190.759 504.814 218.317 509.282C237.811 512.442 274.823 512.442 294.317 509.282C321.875 504.814 344.153 497.746 368.817 485.648C395.762 472.43 414.862 458.686 436.872 436.677C458.881 414.667 472.625 395.567 485.843 368.622C494.622 350.724 499.038 338.994 503.768 321.007C510.067 297.053 511.665 283.922 511.665 256.122C511.665 228.322 510.067 215.191 503.768 191.237C499.038 173.25 494.622 161.52 485.843 143.622C472.625 116.677 458.881 97.577 436.872 75.567C414.862 53.558 395.762 39.814 368.817 26.596C344.177 14.509 321.458 7.29804 294.817 3.10704C280.118 0.795035 247.296 -0.282965 233.313 1.08704ZM222.317 130.198C225.729 131.739 239.828 145.209 280.647 185.926C310.254 215.459 335.904 241.647 337.647 244.122C340.525 248.208 340.817 249.313 340.817 256.122C340.817 262.931 340.525 264.036 337.647 268.122C335.904 270.597 310.254 296.785 280.647 326.318C223.995 382.829 222.566 384.064 213.817 384.09C209.402 384.104 200.767 380.475 198.122 377.496C195.239 374.248 192.361 366.817 192.361 362.622C192.361 353.984 193.987 352.069 243.099 302.872L289.768 256.122L243.099 209.372C193.987 160.175 192.361 158.26 192.361 149.622C192.361 145.427 195.239 137.996 198.122 134.748C200.767 131.769 209.402 128.14 213.817 128.154C216.017 128.16 219.842 129.08 222.317 130.198Z" fill="#04809F"/>
</svg>
