<svg width="212" height="213" viewBox="0 0 212 213" fill="none" xmlns="http://www.w3.org/2000/svg">
<path fill-rule="evenodd" clip-rule="evenodd" d="M96.7465 1.23758C76.3104 3.23955 57.4225 10.7726 40.862 23.5258C32.7974 29.7362 22.3243 41.4078 16.2721 50.9287C13.6582 55.0407 8.57011 65.4604 6.74739 70.433C4.7094 75.9935 2.53729 84.4907 1.46842 91.084C0.160267 99.154 0.160267 114.476 1.46842 122.546C3.31804 133.954 6.244 143.177 11.2522 153.387C16.7241 164.541 22.4137 172.448 31.5249 181.56C40.6364 190.671 48.5432 196.36 59.6977 201.832C69.9079 206.84 79.1304 209.766 90.5386 211.616C98.6086 212.924 113.931 212.924 122 211.616C133.409 209.766 142.631 206.84 152.841 201.832C163.996 196.36 171.903 190.671 181.014 181.56C190.125 172.448 195.815 164.541 201.287 153.387C204.921 145.977 206.749 141.122 208.707 133.675C211.315 123.759 211.976 118.323 211.976 106.815C211.976 95.3065 211.315 89.8706 208.707 79.9543C206.749 72.5082 204.921 67.6523 201.287 60.2431C195.815 49.0886 190.125 41.1817 181.014 32.0702C171.903 22.9591 163.996 17.2695 152.841 11.7976C142.641 6.79391 133.236 3.80876 122.207 2.0738C116.123 1.1167 102.535 0.670435 96.7465 1.23758ZM92.1945 54.6859C93.607 55.3238 99.4436 60.9 116.341 77.7557C128.598 89.9816 139.216 100.823 139.938 101.847C141.129 103.539 141.25 103.996 141.25 106.815C141.25 109.634 141.129 110.091 139.938 111.783C139.216 112.807 128.598 123.648 116.341 135.874C92.8892 159.268 92.2976 159.779 88.6758 159.79C86.8481 159.796 83.2734 158.294 82.1785 157.06C80.985 155.716 79.7936 152.64 79.7936 150.903C79.7936 147.327 80.4667 146.534 100.798 126.168L120.117 106.815L100.798 87.4617C80.4667 67.0956 79.7936 66.3028 79.7936 62.7269C79.7936 60.9903 80.985 57.9141 82.1785 56.5695C83.2734 55.3363 86.8481 53.834 88.6758 53.8397C89.5865 53.8422 91.1699 54.2231 92.1945 54.6859Z" fill="#FAFAFA"/>
</svg>
